<svg xmlns="http://www.w3.org/2000/svg" xmlns:xlink="http://www.w3.org/1999/xlink" width="236" height="210" viewBox="0 0 236 210"><defs><style>.a,.b{fill:none;}.a{stroke:#707070;}.c{clip-path:url(#a);}.d{clip-path:url(#b);}.e{fill:#f8f5f5;}.f{fill:#e8e9eb;}.g{fill:#3b3f48;}.h{fill:#fff;}.i{fill:#ddd;}.j{fill:#fa0a80;}</style><clipPath id="a"><rect class="b" width="236" height="210"/></clipPath><clipPath id="b"><rect class="a" width="236" height="210" transform="translate(73 291)"/></clipPath></defs><g class="c"><g class="d" transform="translate(-73 -291)"><g transform="translate(97.797 317.427)"><ellipse class="e" cx="9.735" cy="9.735" rx="9.735" ry="9.735" transform="translate(0 0)"/></g><path class="e" d="M160.453,6.47c17.528,8.65,30.407,27.816,35.323,48.278s1.905,42.219-9.412,56.508c-11.279,14.251-30.788,21.034-46.83,31.436-16,10.441-28.464,24.5-42.715,26.978S66.526,163,50.675,152.524c-15.813-10.517-31.4-22.291-40.886-39.057C.263,96.739-3.09,75.058,3.235,56.882,9.6,38.706,25.64,23.96,43.168,15.311S79.634,4.032,100.21,1.822,142.963-2.179,160.453,6.47Z" transform="matrix(-0.966, -0.259, 0.259, -0.966, 264.302, 507.848)"/><g transform="translate(79.443 302.204)"><path class="f" d="M578.156,115.868l103.965,52.27a4.916,4.916,0,0,1,2.7,4.723l-6.04,89.472a2.436,2.436,0,0,1-3.529,2.01L568.913,210.075l5.459-92.026a2.615,2.615,0,0,1,3.784-2.181Z" transform="translate(-487.351 -115.59)"/><path class="g" d="M582.9,122.247l101.411,50.986a4.8,4.8,0,0,1,2.63,4.607l-5.892,87.275a2.376,2.376,0,0,1-3.443,1.96L573.88,214.14l5.325-89.765a2.55,2.55,0,0,1,3.691-2.128Z" transform="translate(-490.895 -120.145)"/><path class="h" d="M600.5,145.941l91.926,46.217a4.347,4.347,0,0,1,2.385,4.177l-5.341,79.112a2.154,2.154,0,0,1-3.12,1.777l-94.023-47.984,4.827-81.37a2.312,2.312,0,0,1,3.346-1.929Z" transform="translate(-504.058 -137.067)"/><path class="h" d="M285.906,487.389,390,539.814a6.931,6.931,0,0,0,6.243-.008l77.009-39.092a3.232,3.232,0,0,0,.488-3.246,7.225,7.225,0,0,0-.569-1.4l-10.494-5.52L374.45,446.523l-5.271-2.8a9.761,9.761,0,0,0-9.066-.037l-74.239,38.563a2.882,2.882,0,0,0,.033,5.137Z" transform="translate(-284.314 -348.877)"/><path class="f" d="M285.9,591.347,390,643.772a6.931,6.931,0,0,0,6.243-.008l77.009-39.092a3.232,3.232,0,0,0,.488-3.246l-52.822,27.455-23.957,12.452a6.7,6.7,0,0,1-6.075.052L284.349,588.309A2.871,2.871,0,0,0,285.9,591.347Z" transform="translate(-284.311 -452.836)"/><path class="i" d="M285.9,591.347,390,643.772a6.931,6.931,0,0,0,6.243-.008l77.009-39.092a3.232,3.232,0,0,0,.488-3.246l-52.822,27.455-23.957,12.452a6.7,6.7,0,0,1-6.075.052L284.349,588.309A2.871,2.871,0,0,0,285.9,591.347Z" transform="translate(-284.311 -450.836)"/><path class="f" d="M489.314,610.044,455.6,593.008a4.737,4.737,0,0,0-4.369.05l-19.557,10.448a1.4,1.4,0,0,0,.029,2.483l34.373,17.333a3.894,3.894,0,0,0,3.664-.084l19.635-11.062a1.2,1.2,0,0,0-.064-2.132Z" transform="translate(-388.916 -455.825)"/><path class="f" d="M557.075,510.385,520.8,529.658a2.951,2.951,0,0,1-2.716.027l-102.5-51.834a1.743,1.743,0,0,1,.013-3.118L451.021,457.2a3.841,3.841,0,0,1,3.432.012l102.605,51.7a.831.831,0,0,1,.016,1.477Z" transform="translate(-377.279 -359.015)"/><rect class="j" width="0.407" height="37.29" transform="matrix(0.447, -0.894, 0.894, 0.447, 121.738, 55.619)"/><rect class="j" width="0.406" height="37.473" transform="translate(121.731 60.51) rotate(-62.909)"/><rect class="j" width="0.407" height="21.465" transform="matrix(0.455, -0.89, 0.89, 0.455, 127.84, 69.853)"/><g transform="translate(94.754 11.395)"><path class="f" d="M366.946,97.457,364,104.463l24.866,13.052L397.244,93" transform="translate(-363.427 -74.945)"/><path class="j" d="M386.866,68.272l10.985-25.848L372.6,30,362,55.219Z" transform="translate(-362 -30)"/><rect class="h" width="0.407" height="21.465" transform="matrix(0.455, -0.89, 0.89, 0.455, 9.822, 10.246)"/><rect class="h" width="0.407" height="21.465" transform="matrix(0.455, -0.89, 0.89, 0.455, 8.389, 13.685)"/></g></g></g></g></svg>